<svg width="14" height="14" viewBox="0 0 14 14" fill="none" xmlns="http://www.w3.org/2000/svg">
<g clip-path="url(#clip0_131_8581)">
<path d="M10.839 1.24896L7.18442 0.0303788C7.06476 -0.00947521 6.93541 -0.00947521 6.81575 0.0303788L3.16058 1.24896C2.57964 1.44208 2.07431 1.81334 1.71639 2.31001C1.35847 2.80668 1.16615 3.40351 1.16675 4.01571V7.00063C1.16675 11.4124 6.53342 13.849 6.76325 13.9505C6.83781 13.9836 6.91849 14.0007 7.00008 14.0007C7.08167 14.0007 7.16235 13.9836 7.23692 13.9505C7.46675 13.849 12.8334 11.4124 12.8334 7.00063V4.01571C12.834 3.40344 12.6416 2.80656 12.2835 2.30988C11.9255 1.8132 11.4201 1.44198 10.839 1.24896ZM11.6667 7.00063C11.6667 10.1827 7.98067 12.2699 7.00008 12.7692C6.01833 12.2716 2.33342 10.1909 2.33342 7.00063V4.01571C2.33341 3.64845 2.44895 3.29049 2.66368 2.99253C2.8784 2.69457 3.18143 2.47172 3.52983 2.35555L7.00008 1.1988L10.4698 2.35555C10.8183 2.47162 11.1214 2.69443 11.3363 2.9924C11.5511 3.29036 11.6667 3.64837 11.6667 4.01571V7.00063Z" fill="#707070"/>
</g>
<defs>
<clipPath id="clip0_131_8581">
<rect width="14" height="14" fill="white"/>
</clipPath>
</defs>
</svg>
